<svg width="38" height="51" viewBox="0 0 38 51" fill="none" xmlns="http://www.w3.org/2000/svg">
<path d="M31 4.5H7C5.34315 4.5 4 5.84315 4 7.5V22.5C4 24.1569 5.34315 25.5 7 25.5H31C32.6569 25.5 34 24.1569 34 22.5V7.5C34 5.84315 32.6569 4.5 31 4.5Z" stroke="white" stroke-width="2" stroke-linecap="round" stroke-linejoin="round"/>
<path d="M13 31.5H25" stroke="white" stroke-width="2" stroke-linecap="round" stroke-linejoin="round"/>
<path d="M19 25.5V31.5" stroke="white" stroke-width="2" stroke-linecap="round" stroke-linejoin="round"/>
<path d="M0.321023 39.0909H1.89773L5.60511 48.1463H5.73295L9.44034 39.0909H11.017V50H9.78125V41.7116H9.67472L6.26562 50H5.07244L1.66335 41.7116H1.55682V50H0.321023V39.0909ZM16.9257 50.1705C16.1373 50.1705 15.4573 49.9964 14.8856 49.6484C14.3174 49.2969 13.8788 48.8068 13.5699 48.1783C13.2645 47.5462 13.1118 46.8111 13.1118 45.973C13.1118 45.1349 13.2645 44.3963 13.5699 43.7571C13.8788 43.1143 14.3085 42.6136 14.8589 42.255C15.4129 41.8928 16.0592 41.7116 16.7979 41.7116C17.224 41.7116 17.6448 41.7827 18.0603 41.9247C18.4758 42.0668 18.854 42.2976 19.1949 42.6172C19.5358 42.9332 19.8074 43.3523 20.0099 43.8743C20.2123 44.3963 20.3135 45.0391 20.3135 45.8026V46.3352H14.0067V45.2486H19.0351C19.0351 44.7869 18.9427 44.375 18.7581 44.0128C18.577 43.6506 18.3177 43.3647 17.9804 43.1552C17.6466 42.9457 17.2524 42.8409 16.7979 42.8409C16.2971 42.8409 15.8639 42.9652 15.4981 43.2138C15.1359 43.4588 14.8572 43.7784 14.6618 44.1726C14.4665 44.5668 14.3689 44.9893 14.3689 45.4403V46.1648C14.3689 46.7827 14.4754 47.3065 14.6885 47.7362C14.9051 48.1623 15.2052 48.4872 15.5887 48.7109C15.9722 48.9311 16.4179 49.0412 16.9257 49.0412C17.2559 49.0412 17.5542 48.995 17.8206 48.9027C18.0905 48.8068 18.3231 48.6648 18.5184 48.4766C18.7137 48.2848 18.8646 48.0469 18.9711 47.7628L20.1856 48.1037C20.0578 48.5156 19.843 48.8778 19.5411 49.1903C19.2393 49.4993 18.8664 49.7408 18.4225 49.9148C17.9786 50.0852 17.4797 50.1705 16.9257 50.1705ZM23.4829 45.0781V50H22.2258V41.8182H23.4403V43.0966H23.5468C23.7385 42.6811 24.0297 42.3473 24.4204 42.0952C24.811 41.8395 25.3153 41.7116 25.9332 41.7116C26.4871 41.7116 26.9719 41.8253 27.3873 42.0526C27.8028 42.2763 28.126 42.6172 28.3568 43.0753C28.5876 43.5298 28.703 44.1051 28.703 44.8011V50H27.4459V44.8864C27.4459 44.2436 27.279 43.7429 26.9452 43.3842C26.6114 43.022 26.1533 42.8409 25.5709 42.8409C25.1697 42.8409 24.811 42.9279 24.4949 43.1019C24.1824 43.2759 23.9356 43.5298 23.7545 43.8636C23.5734 44.1974 23.4829 44.6023 23.4829 45.0781ZM36.1564 46.6548V41.8182H37.4135V50H36.1564V48.6151H36.0712C35.8794 49.0305 35.5811 49.3839 35.1763 49.6751C34.7715 49.9627 34.2601 50.1065 33.6422 50.1065C33.1309 50.1065 32.6763 49.9947 32.2786 49.771C31.8809 49.5437 31.5684 49.2028 31.3411 48.7482C31.1138 48.2901 31.0002 47.7131 31.0002 47.017V41.8182H32.2573V46.9318C32.2573 47.5284 32.4242 48.0043 32.758 48.3594C33.0953 48.7145 33.525 48.892 34.0471 48.892C34.3596 48.892 34.6774 48.8121 35.0005 48.6523C35.3272 48.4925 35.6007 48.2475 35.8208 47.9173C36.0446 47.587 36.1564 47.1662 36.1564 46.6548Z" fill="white"/>
</svg>
